HIERARCHY
ROOT Hips
{
	OFFSET -3.958830 18.904000 13.208200
	CHANNELS 6 Xposition Yposition Zposition Zrotation Yrotation Xrotation 
	JOINT LHipJoint
	{
		OFFSET 0.000000 0.000000 0.000000
		CHANNELS 3 Zrotation Yrotation Xrotation
		JOINT LeftUpLeg
		{
			OFFSET 1.800000 -1.400000 0.085000
			CHANNELS 3 Zrotation Yrotation Xrotation
			JOINT LeftLeg
			{
				OFFSET 2.215000 -6.000000 0.000000
				CHANNELS 3 Zrotation Yrotation Xrotation
				JOINT LeftFoot
				{
					OFFSET 2.500000 -6.900000 0.000000
					CHANNELS 3 Zrotation Yrotation Xrotation
					JOINT LeftToeBase
					{
						OFFSET 0.200000 -0.500000 1.950000
						CHANNELS 3 Zrotation Yrotation Xrotation
						End Site
						{
							OFFSET 0.000000 0.000000 0.000000
						}
					}
				}
			}
		}
	}
	JOINT RHipJoint
	{
		OFFSET 0.000000 0.000000 0.000000
		CHANNELS 3 Zrotation Yrotation Xrotation
		JOINT RightUpLeg
		{
			OFFSET -1.800000 -1.400000 0.085000
			CHANNELS 3 Zrotation Yrotation Xrotation
			JOINT RightLeg
			{
				OFFSET -2.215000 -6.000000 0.000000
				CHANNELS 3 Zrotation Yrotation Xrotation
				JOINT RightFoot
				{
					OFFSET -2.500000 -6.900000 0.000000
					CHANNELS 3 Zrotation Yrotation Xrotation
					JOINT RightToeBase
					{
						OFFSET -0.200000 -0.500000 1.950000
						CHANNELS 3 Zrotation Yrotation Xrotation
						End Site
						{
							OFFSET 0.000000 0.000000 0.000000
						}
					}
				}
			}
		}
	}
	JOINT LowerBack
	{
		OFFSET 0.000000 0.000000 0.000000
		CHANNELS 3 Zrotation Yrotation Xrotation
		JOINT Spine
		{
			OFFSET -0.087000 1.940000 -0.288900
			CHANNELS 3 Zrotation Yrotation Xrotation
			JOINT Spine1
			{
				OFFSET 0.000000 1.950000 0.060000
				CHANNELS 3 Zrotation Yrotation Xrotation
				JOINT Neck
				{
					OFFSET 0.000000 0.000000 0.000000
					CHANNELS 3 Zrotation Yrotation Xrotation
					JOINT Neck1
					{
						OFFSET 0.000000 1.600000 0.340000
						CHANNELS 3 Zrotation Yrotation Xrotation
						JOINT Head
						{
							OFFSET 0.000000 1.667000 -0.240000
							CHANNELS 3 Zrotation Yrotation Xrotation
							End Site
							{
								OFFSET 0.000000 0.000000 0.000000
							}
						}
					}
				}
				JOINT LeftShoulder
				{
					OFFSET 0.000000 0.000000 0.000000
					CHANNELS 3 Zrotation Yrotation Xrotation
					JOINT LeftArm
					{
						OFFSET 2.700000 1.550000 -0.730000
						CHANNELS 3 Zrotation Yrotation Xrotation
						JOINT LeftForeArm
						{
							OFFSET 5.450000 0.000000 0.000000
							CHANNELS 3 Zrotation Yrotation Xrotation
							JOINT LeftHand
							{
								OFFSET 3.450000 0.000000 0.000000
								CHANNELS 3 Zrotation Yrotation Xrotation
								JOINT LeftHandIndex1
								{
									OFFSET 0.750000 0.000000 0.000000
									CHANNELS 3 Zrotation Yrotation Xrotation
									End Site
									{
										OFFSET 0.000000 0.000000 0.000000
									}
								}
							}
						}
					}
				}
				JOINT RightShoulder
				{
					OFFSET 0.000000 0.000000 0.000000
					CHANNELS 3 Zrotation Yrotation Xrotation
					JOINT RightArm
					{
						OFFSET -2.700000 1.550000 -0.730000
						CHANNELS 3 Zrotation Yrotation Xrotation
						JOINT RightForeArm
						{
							OFFSET -5.450000 0.000000 0.000000
							CHANNELS 3 Zrotation Yrotation Xrotation
							JOINT RightHand
							{
								OFFSET -3.450000 0.000000 0.000000
								CHANNELS 3 Zrotation Yrotation Xrotation
								JOINT RightHandIndex1
								{
									OFFSET -0.750000 0.000000 0.000000
									CHANNELS 3 Zrotation Yrotation Xrotation
									End Site
									{
										OFFSET 0.000000 0.000000 0.000000
									}
								}
							}
						}
					}
				}
			}
		}
	}
}
MOTION
Frames: 9
Frame Time: 0.016667
-1.417410 17.273700 -2.154330 -0.014996 28.942580 3.050375 -15.029109 13.275133 2.805908 0.768843 -0.619969 1.023991 -6.068039 9.337489 30.159604 0.031952 6.800264 2.465490 0.496430 -0.073180 0.492370 18.410852 -11.052533 3.095865 4.514450 3.339430 -20.616127 3.101978 -4.965378 21.391834 -0.208107 -2.995560 3.628383 -0.035910 0.102760 0.107470 -4.836524 -0.845205 -7.635882 16.779365 -5.110296 12.891831 -8.806897 -4.003660 -3.534185 2.835685 1.079366 -2.722387 -0.441635 -5.756761 39.734106 -1.017310 -5.314670 -10.490550 -11.705125 18.985301 -2.897749 -40.838110 15.436984 -10.828259 83.446087 -59.803281 -44.203273 -3.380524 1.819509 0.821930 0.005160 -0.049530 0.202880 5.416252 -21.206382 1.752963 64.371649 -14.628605 -21.537863 27.749239 52.034321 8.761030 1.703937 -1.597654 -0.300460 0.217890 -0.128750 -0.408170 
-1.427200 17.271630 -2.174660 -0.382617 29.116506 2.719840 -15.016892 13.233926 2.791502 0.987526 -0.582797 1.032681 -6.534369 9.418057 29.519802 -0.001616 6.777312 2.471740 0.497430 -0.075570 0.500420 18.429086 -11.034564 3.127874 4.658060 3.689312 -21.436659 3.114824 -5.134003 22.841853 -0.224869 -3.121418 3.571536 -0.027490 0.105750 0.116620 -4.886980 -0.769574 -7.650295 17.418016 -5.216776 13.204599 -8.882317 -4.023642 -3.349876 2.857478 1.441468 -2.684555 0.283465 -6.153899 39.268904 -1.767810 -5.119230 -10.647600 -11.485258 18.690372 -2.886933 -38.780000 15.898728 -10.736630 81.973592 -61.205361 -43.947286 -3.389306 1.788990 0.823920 0.017700 -0.053000 0.196320 5.160684 -21.253338 1.765323 64.305882 -14.548907 -21.683443 27.634493 53.109105 8.944355 1.677025 -1.624585 -0.308050 0.219600 -0.120440 -0.418020 
-1.456410 17.272120 -2.207730 -1.054615 29.028779 2.029726 -15.003723 13.180792 2.761860 1.276005 -0.424594 1.395129 -6.921251 9.365652 28.172639 -0.080933 6.704604 2.499552 0.485420 -0.107690 0.520090 18.453805 -10.981047 3.209120 5.028855 4.367331 -22.625530 3.103113 -5.370621 25.122417 -0.263093 -3.320280 3.473657 -0.024450 0.119360 0.129230 -4.935492 -0.689520 -7.692404 18.096395 -5.279352 13.883704 -8.683930 -3.885115 -2.647229 2.778925 1.972639 -2.903387 1.283004 -6.486032 39.179414 -2.245830 -4.808960 -11.356320 -11.063124 17.670135 -2.609989 -36.116483 16.888591 -10.827202 79.797022 -62.329391 -43.206524 -3.414979 1.761401 0.855480 0.027760 -0.051200 0.176960 4.966482 -20.663948 1.802747 63.946603 -14.099585 -21.884701 27.199009 54.156968 8.936221 1.644633 -1.619946 -0.340180 0.245830 -0.091080 -0.443040 
-1.498180 17.276280 -2.252680 -1.673456 29.423229 1.095969 -15.023338 13.186041 2.745550 1.841615 -0.307682 1.813127 -7.200876 9.338797 27.064519 -0.151886 6.631479 2.514571 0.490800 -0.102900 0.560150 18.430747 -10.896327 3.329687 5.068060 5.197276 -24.037811 3.474157 -5.793442 27.921060 -0.326745 -3.604076 3.356855 -0.010360 0.094600 0.119250 -4.886654 -0.734124 -7.813483 18.176159 -5.405113 15.597981 -7.898672 -3.742069 -2.592146 2.787434 3.047203 -3.291046 3.212609 -7.248792 39.475580 -3.039610 -4.251010 -12.906320 -11.202863 16.177449 -2.325966 -32.214298 18.684241 -10.844125 76.935139 -64.187457 -42.449184 -3.393402 1.707186 0.895440 0.018720 -0.030950 0.150100 5.295754 -19.843799 1.831390 62.699706 -13.815969 -22.019287 26.558625 56.991639 9.247482 1.607408 -1.629136 -0.364780 0.271590 -0.082000 -0.477630 
-1.550330 17.280030 -2.299860 -1.814716 30.459748 0.665294 -15.073330 13.213800 2.722671 2.380365 -0.259208 2.063070 -7.268726 9.226326 26.140659 -0.180449 6.532585 2.539441 0.519600 -0.056810 0.592780 18.377871 -10.783977 3.441479 4.301699 5.950367 -25.882024 4.617344 -6.483203 30.486192 -0.397254 -3.962802 3.211481 0.015620 0.070420 0.130300 -4.758511 -0.878987 -7.908225 17.370098 -5.573652 17.098052 -6.716449 -3.825469 -2.661242 2.696787 4.227878 -3.539518 5.343303 -8.085595 38.799988 -3.850600 -3.774780 -13.671200 -11.637000 14.610011 -2.090890 -27.532724 20.623376 -10.507029 73.032545 -65.975026 -40.889631 -3.386927 1.774335 0.887460 0.024390 -0.011820 0.144340 6.216859 -19.011751 1.627415 60.748930 -13.629993 -21.822135 24.996589 59.341330 9.009288 1.587699 -1.673845 -0.348760 0.262210 -0.099060 -0.485420 
-1.584280 17.283830 -2.347550 -1.931635 32.083484 0.050091 -15.131309 13.273282 2.701813 3.102431 -0.227440 2.737172 -6.990994 8.955031 25.060425 -0.187323 6.366942 2.577833 0.595890 0.047330 0.658640 18.307633 -10.709570 3.507247 2.910233 6.291793 -27.199907 6.435882 -7.426640 32.215330 -0.496054 -4.315044 3.064632 0.055150 0.001980 0.147510 -4.624566 -1.037454 -7.980449 16.749239 -5.805204 18.683287 -5.690113 -3.960505 -2.572179 2.809037 5.640751 -3.977886 7.877461 -9.217709 38.394927 -4.397780 -3.392970 -15.258860 -12.383796 12.542233 -1.864867 -22.902210 22.089533 -10.001430 68.535299 -67.169668 -38.801013 -3.349613 1.929448 0.885120 0.000850 0.041640 0.148820 7.072889 -17.884479 1.662669 58.684863 -13.816723 -21.854918 22.756091 61.352951 8.212049 1.577939 -1.728055 -0.297140 0.228210 -0.154510 -0.489650 
-1.628450 17.280710 -2.409770 -1.824813 32.641345 0.213898 -15.198666 13.322460 2.689815 3.490519 -0.215870 2.575066 -7.114995 8.943068 24.616088 -0.199695 6.325072 2.586980 0.602210 0.061700 0.670670 18.238262 -10.544632 3.651033 1.582185 6.992738 -29.356872 7.799078 -8.170925 34.042626 -0.558246 -4.653132 2.932076 0.062200 -0.010410 0.155930 -4.401013 -1.299637 -8.076981 15.601024 -5.528335 20.331943 -4.118849 -3.568286 -2.923726 2.714355 6.518237 -4.514767 9.436759 -9.833866 37.328245 -4.687690 -3.109090 -15.931880 -12.656082 11.033495 -1.558180 -20.177701 23.133202 -9.563149 62.551161 -67.102220 -35.054489 -3.378009 2.142192 0.886900 0.002800 0.055290 0.145890 7.697663 -16.608608 1.785348 56.567537 -13.973514 -21.838799 19.750094 63.549687 7.058232 1.558735 -1.747511 -0.292440 0.220870 -0.161300 -0.494830 
-1.656370 17.273340 -2.460290 -1.734098 34.575779 0.715435 -15.262768 13.399101 2.657331 4.198933 -0.430786 2.022994 -7.007962 8.818214 24.382499 -0.225081 6.280867 2.602993 0.597640 0.049530 0.669280 18.165193 -10.420555 3.733320 -0.220864 7.057221 -31.185704 9.735596 -9.099962 34.575782 -0.592924 -4.919847 2.825059 0.056740 -0.007470 0.170630 -4.234638 -1.594706 -8.114224 15.091952 -5.742381 21.086870 -2.968009 -3.670958 -3.437195 2.686753 7.075726 -4.977582 10.346309 -10.457533 35.748819 -4.959040 -3.252550 -15.911890 -12.595307 10.008051 -1.326122 -18.639063 23.256631 -9.049026 55.954346 -66.427712 -30.725124 -3.408988 2.365751 0.883300 0.013390 0.049520 0.145250 7.739658 -15.840254 2.092481 54.850959 -14.930980 -22.058704 16.733747 65.473886 5.772489 1.527376 -1.785014 -0.291480 0.203820 -0.159340 -0.498110 
-1.684600 17.263390 -2.505180 -1.965842 36.521726 1.468886 -15.294541 13.443639 2.612548 5.088593 -0.674823 1.105151 -6.956250 8.626341 23.870858 -0.220437 6.123061 2.637647 0.608890 0.071580 0.665000 18.122103 -10.354588 3.807053 -1.423577 6.986775 -32.729248 10.888462 -9.528105 34.187798 -0.592681 -4.978171 2.785776 0.050330 -0.041600 0.197670 -4.169285 -1.739254 -8.126610 15.484261 -6.097486 21.317447 -2.385164 -3.785478 -4.243997 2.710483 7.523741 -5.489563 11.185258 -11.130736 33.967186 -5.530010 -3.281250 -15.475320 -11.861120 9.545632 -1.057342 -17.839871 23.136204 -8.530718 51.243455 -65.372568 -27.193772 -3.414806 2.586015 0.847790 0.013480 0.058700 0.148540 6.808084 -15.597638 2.520058 54.231696 -15.775096 -22.315347 13.215755 66.260561 4.058045 1.524722 -1.842047 -0.244460 0.133380 -0.182050 -0.485390 
